<svg id="default" xmlns="http://www.w3.org/2000/svg" viewBox="0 0 114.42 137.79"><defs><style>.cls-1{fill:#fefefe;}.cls-2{fill:#fefefd;}.cls-3{fill:#fefdfd;}.cls-4{fill:#fdfdfd;}.cls-5{fill:#040404;}.cls-6{fill:#060707;}.cls-7{fill:#090706;}.cls-8{fill:#0e0b0b;}</style></defs><title>default</title><path d="M98.59,47c1.53,1.42,3,2.61,4.23,4A28.72,28.72,0,0,1,108.3,59,9.43,9.43,0,0,1,103,71.59c-.89.32-1.14.72-.88,1.7a40.36,40.36,0,0,1,1.73,10.58c0,5.12-3.84,8-8.46,8.55a8,8,0,0,1-4.58-.56c-.63-.32-.94.1-1.19.62-1.82,3.65-7.08,5.2-10.81,4.35a8.49,8.49,0,0,1-2.57-1.24c-.29-.18-.66-.41-1-.07s0,.68.19.94a55.81,55.81,0,0,1,5.4,8.88c1.58,2.91,3.08,5.85,4.62,8.78a6.7,6.7,0,0,1-1.64,7.95c-1.21,1-2.61.85-4,.87-1.68,0-1.78.15-1.35,1.78.3,1.15.57,2.32,1,3.45a1.5,1.5,0,0,1-.41,1.74,2.07,2.07,0,0,0-.47,2.68c1,2.39,1.25,4.82-.18,7.13A6.84,6.84,0,0,1,72,143.36c-2.93-.15-5.38-1.22-6.85-3.89a8.53,8.53,0,0,1-.83-3.71c0-.91-.45-1.19-1.28-1.11a34.76,34.76,0,0,1-5.85.29c-.88-.05-1.75-.12-2.62-.24s-1.23.33-1.31,1.2c-.23,2.34-.67,4.63-2.81,6.08-2.66,1.8-5.49,2.4-8.44.79a7,7,0,0,1-3.83-6.68,16.54,16.54,0,0,1,1-4.18c.17-.57.32-1.18-.17-1.56-.77-.6-.59-1.26-.4-2,.35-1.39.66-2.79,1-4.19.19-.89.08-1.41-1.11-1.23-2.67.41-4.86-.39-6-3a6.18,6.18,0,0,1-.06-5.45c2.81-5.5,5.54-11,8.87-16.26.43-.67.94-1.29,1.4-2,.18-.26.35-.55.05-.86a.68.68,0,0,0-.87-.14,5.11,5.11,0,0,0-.73.41c-3.51,2.84-11.28,1.11-13.06-2.89-.42-1-1-1.16-2.11-.68a8.25,8.25,0,0,1-5.65,0c-5.52-1.61-7.21-5.56-6.52-10.76a52.52,52.52,0,0,1,2-9.2,1.06,1.06,0,0,0-.4-1.35c-5.54-4-5.56-9-2.56-14.14a38.76,38.76,0,0,1,7.41-8.75,8.57,8.57,0,0,0,.66-.69c0-.05,0-.15.07-.29-.59-.26-1.07.11-1.54.3-1.52.6-3,1.27-4.52,1.9C9,51.58,3.91,46.59,3.13,42.48c-1-5.38,0-7.85,4.87-11.15C11.49,29,15.61,27.93,19.68,27a32.92,32.92,0,0,1,8.16-1c.26,0,.65.13.72-.24s-.39-.41-.67-.5c-2.65-.84-5.39-1.38-8.08-2.07a8,8,0,0,1-5.69-7.19,9.78,9.78,0,0,1,2.23-7.22,7.93,7.93,0,0,1,5.54-2.67C26.21,5.58,30.15,7,34,8.54A50.33,50.33,0,0,1,50.89,19.7,70.31,70.31,0,0,1,59.16,29c.68.94.94.86,1.76-.21,5.82-7.6,12.6-14.12,21.19-18.56A35.91,35.91,0,0,1,95.81,6c5.44-.41,9.72,2.3,10,8.8a8.38,8.38,0,0,1-3,7.1,9.89,9.89,0,0,1-4.63,1.75c-2.09.46-4.17,1-6.24,1.55-.26.07-.73.13-.6.57s.47.22.74.22c5.41,0,10.52,1.41,15.55,3.25a19.23,19.23,0,0,1,7.06,4.37c2.83,2.79,3,6.2,1.91,9.67a9.25,9.25,0,0,1-7.23,6.46c-1.91.41-3.71-.28-5.46-1-1.3-.52-2.58-1.08-3.85-1.63A1.61,1.61,0,0,0,98.59,47Z" transform="translate(-2.78 -5.91)"/><path id="face" class="cls-1" d="M39.12,62.28h39l0,.29-5.29,1.1-9.34,1.91c-.68.13-1.33.38-1.15,1.21s.92.71,1.55.59l16.35-3.32a11.25,11.25,0,0,0,4.79-1.69,1.67,1.67,0,0,1,2.28.35,26.32,26.32,0,0,1,3.11,3.8c.86,1.35.51,2.9.39,4.33a23.47,23.47,0,0,1-5.64,13.69C80.53,90,74.8,94.16,67.65,95.68c-13.76,2.94-25.86-.3-35.45-11.91a23.6,23.6,0,0,1-5.08-12.94,2.47,2.47,0,0,1,.5-1.67C29,67,30.53,65.05,32.08,63.07c.26-.33.53-.52.91-.3,2.16,1.25,4.63,1.31,7,1.84,4.49,1,9,1.87,13.53,2.8.69.14,1.46.32,1.63-.63s-.5-1.07-1.26-1.22c-4-.81-8.09-1.66-12.13-2.52A5,5,0,0,1,39.12,62.28Z" transform="translate(-2.78 -5.91)"/><path id="rasta_3" class="cls-1" d="M98.84,69.92c-2.18.14-3.85-1.1-5.15-3a78.78,78.78,0,0,0-6-7.61,77.41,77.41,0,0,0-25-19.23c-.54-.26-1.07-.53-1.59-.83-1.51-.86-1.95-1.82-1.57-3.36a2.93,2.93,0,0,1,3-2.24,21,21,0,0,1,5.37,1c8.86,2.22,17.29,5.45,24.84,10.73a49.53,49.53,0,0,1,11.3,10.8,11.91,11.91,0,0,1,2.43,6.15C106.83,66.39,103.22,70,98.84,69.92Z" transform="translate(-2.78 -5.91)"/><path id="rasta_8" class="cls-1" d="M20.92,69.91a7.24,7.24,0,0,1-7.06-9.59c1-3.48,3.42-6,5.81-8.52C25.75,45.46,33.17,41.17,41.31,38a125.8,125.8,0,0,1,15-4.36c.93-.24,1.19,0,1,.92-.42,1.56-.7,3.08.32,4.59.44.66-.3,1-.8,1.19a53.63,53.63,0,0,0-7.62,4.27A84.24,84.24,0,0,0,26.69,66.32c-1.08,1.5-2.12,3-4.11,3.45A10.43,10.43,0,0,1,20.92,69.91Z" transform="translate(-2.78 -5.91)"/><path id="cinta" class="cls-1" d="M59.93,59.88H36.2c-.3,0-.7.17-.85-.21s.21-.57.42-.79A76.49,76.49,0,0,1,52,45.71c2.17-1.27,4.44-2.35,6.65-3.54a2.65,2.65,0,0,1,2.6,0A75,75,0,0,1,83.71,58.44l.51.51c.19.2.42.43.31.72s-.48.19-.74.19H59.93Z" transform="translate(-2.78 -5.91)"/><path id="rasta_7" class="cls-1" d="M5.25,39.91c-.16-2.33,1.11-4,2.9-5.67,3.76-3.43,8.57-4,13.16-5.08,5.3-1.25,10.74-.9,16.11-.7,5.21.19,10.3,1.5,15.38,2.64.33.08.82.15.79.59s-.56.4-.87.46A64.82,64.82,0,0,0,33.2,39c-4.49,2.56-9.46,3.7-14.14,5.67a21.72,21.72,0,0,0-3.84,1.89,5.43,5.43,0,0,1-5.48.36C6.91,45.61,5.08,43.45,5.25,39.91Z" transform="translate(-2.78 -5.91)"/><path id="rasta_4" class="cls-1" d="M88.24,28.43A45,45,0,0,1,108.7,32.1,9.34,9.34,0,0,1,114.46,38a7.2,7.2,0,0,1-7.9,9.33,3.85,3.85,0,0,1-1.46-.51c-3.75-2.47-8.06-3.54-12.24-4.93a18.13,18.13,0,0,1-3.37-1.48,81.29,81.29,0,0,0-21-8.1,4.17,4.17,0,0,0-.71-.07c-.49-.06-1.25.1-1.27-.53s.73-.58,1.22-.69C74.46,29.46,81.2,28,88.24,28.43Z" transform="translate(-2.78 -5.91)"/><path id="torso" class="cls-1" d="M59.47,117.41a60.53,60.53,0,0,1-14.3-1.18c-.89-.19-1.19-.57-1-1.5,1.35-5.23,2.69-10.46,4-15.7.24-1,.47-1.34,1.62-1a42.65,42.65,0,0,0,18,.18c.91-.16,1.11.16,1.33.81,1.11,3.24,2,6.55,2.79,9.86.51,2,1,4.1,1.58,6.1.35,1.12-.2,1.33-1,1.47A63.54,63.54,0,0,1,59.47,117.41Z" transform="translate(-2.78 -5.91)"/><path id="rasta_5" class="cls-1" d="M96,8.3c4.09.06,7.21,2.72,7.45,6.17a6.51,6.51,0,0,1-5.21,6.65,73.59,73.59,0,0,0-12.87,3.93c-2.08.87-4.29.9-6.45,1.14A76.14,76.14,0,0,0,65,29.13c-.37.12-.79.44-1.07,0s.16-.66.38-.91A74.12,74.12,0,0,1,77.56,15.9,44.45,44.45,0,0,1,95.12,8.41C95.48,8.35,95.83,8.32,96,8.3Z" transform="translate(-2.78 -5.91)"/><path id="rasta_6" class="cls-1" d="M16.54,15c.42-3.83,2.86-7.35,7.9-6.6a42.18,42.18,0,0,1,16.21,6.39c5.75,3.62,10.47,8.37,14.94,13.41.23.27.55.55.31.94s-.64.16-1,.05A67.88,67.88,0,0,0,38.71,26a18,18,0,0,1-5.28-1.4,68.61,68.61,0,0,0-11.66-3.41A6.58,6.58,0,0,1,16.54,15Z" transform="translate(-2.78 -5.91)"/><path id="short" class="cls-1" d="M57.58,130.47c0,2.35,0,2.41-2.39,2a14.63,14.63,0,0,0-3.44-.31c-3.49.27-6.34-1.6-9.49-2.47-1.09-.3-1.33-.83-1.07-2,.62-2.83,1.6-5.58,2-8.46a.79.79,0,0,1,1.09-.76C50.77,120,57.39,120,64,119.77a50.18,50.18,0,0,0,8.78-1c1.54-.33,1.58-.21,2.09,1.34.73,2.19,1.1,4.47,1.75,6.68.5,1.69.27,2.22-1.34,2.86-3.29,1.3-6.61,2.46-10.23,2.47a34.4,34.4,0,0,0-4.15.45c-.74.1-1-.17-.95-.92s0-1.68,0-2.52a1.21,1.21,0,0,0-1.31-1.36c-.95,0-1.06.68-1.08,1.4C57.56,129.59,57.58,130,57.58,130.47Z" transform="translate(-2.78 -5.91)"/><path id="rasta_9" class="cls-1" d="M20.65,72.55A6.41,6.41,0,0,0,24,72c.7-.34.87,0,1,.64a28.86,28.86,0,0,0,3.2,9.43,5.42,5.42,0,0,1-4.64,8.08c-4.21.1-7.16-2.53-7.47-5.85a21.32,21.32,0,0,1,.6-6.41c.29-1.31.77-2.6,1-3.92s.75-1.63,1.91-1.42A7.33,7.33,0,0,0,20.65,72.55Z" transform="translate(-2.78 -5.91)"/><path id="rasta_1" class="cls-1" d="M101.49,82.26c.05,6.28-4.17,8.56-8.66,7.72a4.89,4.89,0,0,1-3.34-7.42,24.09,24.09,0,0,0,3.6-10.89c0-.67.29-.87.91-.58a12,12,0,0,0,4.86,1.52c.52,0,.79.59,1,1.12A42.32,42.32,0,0,1,101.49,82.26Z" transform="translate(-2.78 -5.91)"/><path id="right_arm" class="cls-1" d="M71.3,97.09a2.76,2.76,0,0,1,2.88,1.39,69.84,69.84,0,0,1,5.4,8.88c.66,1.23,1.29,2.48,2,3.7A1.23,1.23,0,0,1,81,113a19.34,19.34,0,0,1-3.85,1.88c-.89.29-1.2,0-1.42-.81-1.22-4.9-2.49-9.78-3.76-14.67C71.82,98.63,71.56,97.92,71.3,97.09Z" transform="translate(-2.78 -5.91)"/><path id="left_arm" class="cls-1" d="M45.55,97.25c.72,0,.53.55.43,1-1.2,4.77-2.42,9.54-3.62,14.31-.73,2.92-.75,3-3.41,1.53-3.61-2-3.2-1.58-1.5-4.79s3.3-6.2,5.21-9.15a13.77,13.77,0,0,1,1.73-2.29A1.55,1.55,0,0,1,45.55,97.25Z" transform="translate(-2.78 -5.91)"/><path id="left_leg" class="cls-1" d="M40.53,137a11.8,11.8,0,0,1,.87-4c.23-.71.69-.78,1.31-.48a24.27,24.27,0,0,0,7.43,2c.48.06.74.15.72.69-.08,2.63-.66,4.24-3.17,5.58-2,1.06-3.9.37-5.64-.69A3.14,3.14,0,0,1,40.53,137Z" transform="translate(-2.78 -5.91)"/><path id="right_leg" class="cls-1" d="M77,136.57c0,2.53-1.37,3.87-4.46,4.35s-6.15-2.43-5.85-6.1c0-.48.32-.57.72-.6A26.67,26.67,0,0,0,75,132.4c.5-.18,1-.23,1.17.38A12,12,0,0,1,77,136.57Z" transform="translate(-2.78 -5.91)"/><path id="rasta_10" class="cls-1" d="M36.29,94.65c-2.83,0-5.08-1.05-6.42-3.7a1.46,1.46,0,0,1,.1-1.76,4.12,4.12,0,0,0,.93-1.91c.16-.88.63-.64,1-.22,1.9,2.48,4.55,4.08,6.94,6,.27.22.66.4.58.82s-.47.45-.82.57A8.58,8.58,0,0,1,36.29,94.65Z" transform="translate(-2.78 -5.91)"/><path id="rasta_2" class="cls-2" d="M81,94.62c-.34,0-.74,0-1.14,0s-1.15.09-1.33-.5.45-.87.84-1.18c2.18-1.74,4.56-3.24,6.39-5.38.55-.64.93-.49,1.12.3a3.73,3.73,0,0,0,.2.56c.31.66,1.19,1.16.88,2a5.61,5.61,0,0,1-2.27,3A6.89,6.89,0,0,1,81,94.62Z" transform="translate(-2.78 -5.91)"/><path d="M83.08,72.09c-2,5.66-10.17,9.6-16.16,3.38a9.44,9.44,0,0,1-2.07-3.19c-.43-1.13-.19-1.42,1-1.42H74v0c2.72,0,5.44,0,8.16,0C83.25,70.79,83.41,71.16,83.08,72.09Z" transform="translate(-2.78 -5.91)"/><path d="M52.77,72.84c-1.84,3.65-4.82,5.59-10.09,5.87-2.43.26-7-3.43-8-6.53-.34-1.13-.26-1.31,1-1.32l15,0h.84C53.34,70.77,53.63,71.13,52.77,72.84Z" transform="translate(-2.78 -5.91)"/><path id="right_hand" class="cls-3" d="M79.67,120.55h-.48A2.07,2.07,0,0,1,76.88,118a.84.84,0,0,1,.67-.76,16.91,16.91,0,0,0,5-2.43c.61-.41,1-.27,1.22.47C84.74,118.07,82.82,120.55,79.67,120.55Z" transform="translate(-2.78 -5.91)"/><path id="left_hand" class="cls-4" d="M38.19,120.55a3.9,3.9,0,0,1-4-5.18c.21-.68.5-1,1.17-.56a21.08,21.08,0,0,0,4.89,2.38c1.3.42.41,1.5.46,2.27a1,1,0,0,1-1.11,1.09C39.14,120.53,38.67,120.55,38.19,120.55Z" transform="translate(-2.78 -5.91)"/><path d="M59.59,91.71a37.82,37.82,0,0,1-15.87-2.57c-.66-.26-1.36-.42-2-.68a1.05,1.05,0,0,1-.76-1.31,1.19,1.19,0,0,1,1.24-.92,5,5,0,0,1,2.2.43c6,2.5,12.4,2.79,18.8,2.41a33.58,33.58,0,0,0,8.71-1.94,28.31,28.31,0,0,1,2.85-.86c.71-.17,1.5-.18,1.72.78a1.3,1.3,0,0,1-1,1.63,62.53,62.53,0,0,1-11.05,2.87C62.5,91.81,60.64,91.63,59.59,91.71Z" transform="translate(-2.78 -5.91)"/><path class="cls-5" d="M50.55,105.94a1.63,1.63,0,0,1,1.78-1.75A1.88,1.88,0,0,1,54,106.26c0,1-.6,1.42-1.8,1.4S50.51,107.23,50.55,105.94Z" transform="translate(-2.78 -5.91)"/><path class="cls-6" d="M67,106.25c.12.9-.37,1.32-1.37,1.31-1.32,0-1.79-.42-1.81-1.64,0-1,.67-1.51,1.89-1.5C66.72,104.44,67,104.84,67,106.25Z" transform="translate(-2.78 -5.91)"/><path class="cls-7" d="M64.09,122.45c.61-.09,1.1.09,1.08.77s-.35,1.28-1.27,1.24-1.26-.41-1.23-1.14S63.42,122.4,64.09,122.45Z" transform="translate(-2.78 -5.91)"/><path class="cls-8" d="M54.14,124.36a1.35,1.35,0,0,1-1.29-1.21.82.82,0,0,1,1-.86c.57.09,1.33.1,1.32,1C55.17,124.06,54.71,124.26,54.14,124.36Z" transform="translate(-2.78 -5.91)"/><path id="left_eye" class="cls-1" d="M83.08,72.09c-2,5.66-10.17,9.6-16.16,3.38a9.44,9.44,0,0,1-2.07-3.19c-.43-1.13-.19-1.42,1-1.42H74v0c2.72,0,5.44,0,8.16,0C83.25,70.79,83.41,71.16,83.08,72.09Z" transform="translate(-2.78 -5.91)"/><path id="right_eye" class="cls-1" d="M52.77,72.84c-1.84,3.65-4.82,5.59-10.09,5.87-2.43.26-7-3.43-8-6.53-.34-1.13-.26-1.31,1-1.32l15,0h.84C53.34,70.77,53.63,71.13,52.77,72.84Z" transform="translate(-2.78 -5.91)"/><g id="left_pupil"><path d="M43.8,80c7.08,0,7.09-11,0-11s-7.09,11,0,11Z" transform="translate(-2.78 -5.91)"/></g><g id="right_pupil"><path d="M73.54,80.16c7.07,0,7.09-11,0-11s-7.09,11,0,11Z" transform="translate(-2.78 -5.91)"/></g><path id="contorno_eye_left" d="M54.23,68.67a17.76,17.76,0,0,0-2.62-.19H43.46c-3.16,0-6.31,0-9.47,0-1.7,0-2.35.7-2.07,2.25.68,3.74,2.38,6.89,5.78,8.8,4.72,2.64,12.13,2.16,16.21-3.4a10.42,10.42,0,0,0,2-5.55C56,69.17,55.58,68.87,54.23,68.67Zm-1.46,4.17c-1.84,3.65-4.82,5.59-10.09,5.87-2.43.26-7-3.43-8-6.53-.34-1.13-.26-1.31,1-1.32l15,0h.84C53.34,70.77,53.63,71.13,52.77,72.84Z" transform="translate(-2.78 -5.91)"/><path id="contorno_eye_right" d="M84.31,68.57A7.15,7.15,0,0,0,83,68.48c-3,0-5.91,0-9.68,0-2.89.12-6.6-.16-10.31.2-.81.08-1.15.38-1.12,1.19a11.82,11.82,0,0,0,1.74,5.75c3.92,6.63,14.12,7.14,19,1.9a12.88,12.88,0,0,0,3.23-6.81C86.11,69.31,85.7,68.83,84.31,68.57Zm-1.23,3.52c-2,5.66-10.17,9.6-16.16,3.38a9.44,9.44,0,0,1-2.07-3.19c-.43-1.13-.19-1.42,1-1.42H74v0c2.72,0,5.44,0,8.16,0C83.25,70.79,83.41,71.16,83.08,72.09Z" transform="translate(-2.78 -5.91)"/></svg>