<svg xmlns="http://www.w3.org/2000/svg" xmlns:xlink="http://www.w3.org/1999/xlink" viewBox="0,0,256,256" width="150px" height="150px" fill-rule="nonzero"><g fill="#adadad" fill-rule="nonzero" stroke="none" stroke-width="1" stroke-linecap="butt" stroke-linejoin="miter" stroke-miterlimit="10" stroke-dasharray="" stroke-dashoffset="0" font-family="none" font-weight="none" font-size="none" text-anchor="none" style="mix-blend-mode: normal"><g transform="scale(3.2,3.2)"><path d="M40.23047,8c-6.41016,0 -11.49609,1.87109 -15.01172,5.10547c-3.51172,3.23438 -5.40625,7.80078 -5.57812,12.98438l-0.03516,1.03125h11.80469l0.0625,-0.93359c0.15625,-2.34375 1.00391,-4.16406 2.38672,-5.42969c1.37891,-1.26562 3.32813,-2.00781 5.82813,-2.00781c4.78516,0 7.3125,3.40625 7.3125,6.49219c0,1.6875 -0.76562,3.07031 -2.08203,4.50781c-1.31641,1.44141 -3.16406,2.86328 -5.0625,4.46484c-3.79687,3.19531 -7.85547,7.25781 -7.85547,13.96875v3.81641h14v-3c0,-3.125 1.21094,-6.59375 5.02344,-9.01562c5.75391,-3.65234 9.33594,-8.37109 9.33594,-15.12109c0,-4.89844 -2.05859,-9.17969 -5.62109,-12.16406c-3.55859,-2.98828 -8.58203,-4.69922 -14.50781,-4.69922zM40.23047,10c5.54297,0 10.08594,1.59766 13.22266,4.23047c3.14063,2.63281 4.90625,6.28516 4.90625,10.63281c0,6.06641 -2.97266,9.98438 -8.40625,13.43359c-4.39453,2.78906 -5.95312,7.03516 -5.95312,10.70313v1h-10v-1.81641c0,-5.91797 3.44141,-9.32031 7.14453,-12.4375c1.85156,-1.5625 3.75391,-3.00781 5.25,-4.64453c1.49609,-1.63672 2.60547,-3.54687 2.60547,-5.85937c0,-4.19922 -3.55469,-8.49219 -9.3125,-8.49219c-2.90234,0 -5.39062,0.89063 -7.18359,2.53125c-1.57031,1.44141 -2.45703,3.50391 -2.80078,5.83984h-7.94141c0.35938,-4.27344 1.95703,-7.91406 4.8125,-10.54297c3.08984,-2.84766 7.63281,-4.57812 13.65625,-4.57812zM39.07422,12l-0.8125,0.375l-0.19141,0.875l0.58594,0.67578l0.34766,0.07422l0.10156,0.00391l0.8125,-0.375l0.19141,-0.875l-0.59375,-0.67578l-0.34375,-0.07422zM43.30078,12.35938l-0.85937,0.25l-0.31641,0.83594l0.48047,0.75781l0.33203,0.125l0.09375,0.01563l0.86328,-0.24609l0.32031,-0.83594l-0.48047,-0.75781l-0.33203,-0.125zM47.40625,13.48047l-0.88672,0.10156l-0.45312,0.77734l0.35547,0.82422l0.30078,0.17578l0.09766,0.03125l0.88672,-0.10156l0.45313,-0.77344l-0.35156,-0.82812l-0.30469,-0.17578zM50.34375,15.4375l-0.64062,0.625l0.11719,0.89063l0.24609,0.25l0.07813,0.0625l0.88672,0.13672l0.64063,-0.62891l-0.11719,-0.88672l-0.24609,-0.25391l-0.08203,-0.05469zM53.56641,18.33984l-0.83594,0.31641l-0.24609,0.86328l0.12891,0.32813l0.05078,0.08984l0.75781,0.47656l0.83594,-0.32031l0.24219,-0.86328l-0.125,-0.32812l-0.05078,-0.08594zM55.37109,22.22656l-0.89844,0.01172l-0.52344,0.72656v0.23828h-0.01172l0.00391,0.08984l0.01172,0.01172v0.02344l0.01172,-0.00391l0.42969,0.73828l0.89063,0.10156l0.61328,-0.65234l0.03906,-0.35156l-0.00391,-0.08984l-0.00391,-0.0625l-0.01172,-0.0625l-0.00391,-0.00781zM54.625,26.19141l-0.80078,0.41016l-0.15234,0.31641l-0.03125,0.09766l0.16797,0.87891l0.80078,0.39844l0.79688,-0.41016l0.15625,-0.31641l0.03125,-0.09766l-0.16797,-0.87891zM53.23438,29.95313l-0.87891,0.15625l-0.24609,0.25391l-0.05078,0.08594l-0.10156,0.89063l0.65234,0.61328l0.88281,-0.15625l0.24219,-0.25391l0.05078,-0.08594l0.10547,-0.89062zM49.88281,33.07813l-0.29687,0.19141l-0.07031,0.07031l-0.3125,0.83594l0.48438,0.75781l0.89453,0.05859l0.29297,-0.19141l0.07813,-0.06641l0.3125,-0.84375l-0.48828,-0.75zM46.85547,35.78125l-0.30859,0.17969l-0.07422,0.06641l-0.34766,0.82422l0.45313,0.77344l0.89063,0.09766l0.30859,-0.17578l0.07422,-0.06641l0.34766,-0.82812l-0.45312,-0.77344zM44.60938,38.60547l-0.89062,0.03906l-0.27344,0.22656l-0.06641,0.07813l-0.21094,0.86719l0.56641,0.69531l0.89844,-0.04297l0.27344,-0.22656l0.0625,-0.07422l0.21484,-0.87109zM42,41.88672l-0.83984,0.3125l-0.19141,0.29688l-0.03516,0.08984l0.05859,0.89453l0.75391,0.48828l0.83594,-0.3125l0.19531,-0.29687l0.03516,-0.09375l-0.05859,-0.89062zM40.79297,45.89063l-0.28906,0.24219c-0.10937,0.0625 -0.20703,0.14453 -0.28516,0.24609l-0.10937,0.08984l-0.03125,0.14063c-0.05078,0.125 -0.07812,0.25781 -0.07812,0.39063c0,0.55078 0.44922,1 1,1c0.41406,0 0.78125,-0.25391 0.93359,-0.64062l0.01563,-0.01562l0.07813,-0.34375l0.00391,-0.09766l-0.0625,-0.13672c-0.02734,-0.12109 -0.07812,-0.23437 -0.15234,-0.33984l-0.15234,-0.34375zM39,56c-4.40625,0 -8,3.59375 -8,8c0,4.40625 3.59375,8 8,8c4.40625,0 8,-3.59375 8,-8c0,-4.40625 -3.59375,-8 -8,-8zM39,58c3.32422,0 6,2.67578 6,6c0,3.32422 -2.67578,6 -6,6c-3.32422,0 -6,-2.67578 -6,-6c0,-3.32422 2.67578,-6 6,-6zM43,63c-0.55078,0 -1,0.44922 -1,1c0,0.55078 0.44922,1 1,1c0.55078,0 1,-0.44922 1,-1c0,-0.55078 -0.44922,-1 -1,-1zM41.84375,65.82813c-0.27344,-0.00391 -0.53516,0.10156 -0.72266,0.29297c-0.39062,0.39063 -0.39062,1.02344 0,1.41406c0.38672,0.39063 1.02344,0.39063 1.41016,0c0.39063,-0.39062 0.39063,-1.02344 0,-1.41406c-0.18359,-0.18359 -0.42969,-0.28906 -0.6875,-0.29297zM39,67c-0.55078,0 -1,0.44922 -1,1c0,0.55078 0.44922,1 1,1c0.55078,0 1,-0.44922 1,-1c0,-0.55078 -0.44922,-1 -1,-1z"></path></g></g></svg>