<svg id="face_icon" xmlns="http://www.w3.org/2000/svg" viewBox="0 0 116.61 106.44"><defs><style>.cls-1{fill:#fefefe;}.cls-2{fill:#fdfdfd;}.cls-3{fill:#fafafa;}.cls-4{fill:#faf9f9;}.cls-5{fill:#020203;}.cls-6{fill:#fcfcfc;}.cls-7{fill:#fff;}</style></defs><title>face_icon</title><path d="M125,647.49a77.42,77.42,0,0,1-9.91-14.36c-3.38-6.08-5.74-12.62-8.52-19a5.36,5.36,0,0,1-.62-3.9,25.62,25.62,0,0,0,1.06-8.75,32.75,32.75,0,0,0-.15-4.43,34.13,34.13,0,0,0-.78-4.48c-.84-3-3.47-5.55-6.23-5.77A18.06,18.06,0,0,0,90.72,588a7.8,7.8,0,0,1-6.66.28C79.53,586.5,74.71,587,70,587.12a28.26,28.26,0,0,1-4.88.22c-5.09-.66-10.13-.58-14.91,1.68a2.24,2.24,0,0,1-2.06-.12,23.77,23.77,0,0,0-10.43-2.18,8,8,0,0,0-7.31,5.7,35.79,35.79,0,0,0-.11,17.06,4.47,4.47,0,0,1,0,3,81.21,81.21,0,0,0-3.29,10.34,80.83,80.83,0,0,1-6.83,16.91A35.21,35.21,0,0,1,10.4,651.5c-1,.72-1.1,1.35-.34,1.94a15.25,15.25,0,0,0,6.74,3.43,28.88,28.88,0,0,0,13.85-.76c1-.31,1.08,0,.87.83a4.08,4.08,0,0,1-.23.67,32.35,32.35,0,0,1-6.87,10.29,5.6,5.6,0,0,0-.79.9c-.61,1-.27,1.66.84,1.73a11,11,0,0,0,2.15,0c4.68-.57,9.35-1.15,14-1.77.68-.09.86.1,1,.78A19.61,19.61,0,0,1,41,677.3c-.28,1.22,0,1.61,1.25,1.65a12.61,12.61,0,0,0,5.29-1.32c.29-.12.64-.36.86,0,.1.14-.08.53-.21.76l-2.5,4.08A22,22,0,0,1,51,683.9c4.94,2,7.87,7.19,12.66,9.19h0l.12,0a21.57,21.57,0,0,0,8.36-1.26c5.67-2,11.38-7.13,17.4-9.74-.87-1.44-1.77-2.87-2.64-4.31-.16-.25-.44-.58-.18-.87s.6,0,.84.15a9.44,9.44,0,0,0,5.17,1.14c1.56-.05,2-.53,1.57-2-.47-1.77-1-3.52-1.55-5.27s-.57-1.91,1.39-1.62h.24c4.37.15,8.69.07,12.84-1.61,2-.79,2.36-1.59,1.09-3.25a40.87,40.87,0,0,1-4.24-7.07c-.57-1.15-.5-1.27.79-1.26a38.21,38.21,0,0,0,7.17-.34,35.59,35.59,0,0,0,12.32-4.73C126.57,649.72,126.72,649.36,125,647.49Z" transform="translate(-9.57 -586.71)"/><path id="cabello" class="cabello" d="M41.55,650.29c.52-3.23,1-6.42,1.54-9.6q1.39-8.62,2.77-17.24c.11-.67.23-1.34.37-2a2.34,2.34,0,0,0,0-1c-.14-.59-.37-1-1.08-1s-1,.41-1.11,1c-.44,2.42-.84,4.86-1.24,7.29-.61,3.77-1.2,7.54-1.8,11.32q-1.38,8.65-2.77,17.31c-.19,1.22-.41,2.44-.63,3.65-.1.59-.31,1.29.43,1.55a1.51,1.51,0,0,0,1.82-.47c.91-1.11.88-1,1.75.18A30.16,30.16,0,0,0,49,668.55c1.34.93,1.34,1.14-.09,1.94-.45.25-.89.53-1.31.82-.91.64-1,1.15-.1,1.88s.56,1.19-.1,1.73a.27.27,0,0,1-.1.06c-1.08.48-2.29,1.57-3.29,1-.83-.48-.1-1.93.07-2.9a17.68,17.68,0,0,0-.36-5.58c-.18-1.24-1.19-1.37-2.21-1.26-2.22.26-4.44.53-6.65.84-2,.27-4,.36-5.93.79-.25.06-.6.13-.72-.23s.21-.77.45-1a33.39,33.39,0,0,0,3.49-5.24,20,20,0,0,0,1.67-3.83c.46-1.35-.13-2.68-.59-3.94-.23-.63-1-.32-1.51-.2A30.71,30.71,0,0,1,27,654.51c-4.43.36-8.84.67-13-1.44-.91-.46-.52-.87-.05-1.33a42.62,42.62,0,0,0,5.23-6.06,69.82,69.82,0,0,0,8.48-17.35c1.22-3.49,2.28-7,3.23-10.62a10.07,10.07,0,0,1,.33-1c.16-.43.22-1.07.8-1.06s.48.72.69,1.12.19.61.34.88c.93,1.58,2,1.76,3.23.47,1.54-1.58,3.16-3.06,4.72-4.6a82.06,82.06,0,0,1,10.7-8.6c2-1.38,4-2.58,6.09-3.77s2.08-1.85.81-3.71a22.48,22.48,0,0,0-5.62-5.64c-.31-.22-.79-.4-.69-.88s.57-.5,1-.63a25.84,25.84,0,0,1,10.09-.74,29.75,29.75,0,0,0,5.82.12,46.74,46.74,0,0,1,10.64,0,14.37,14.37,0,0,1,3.46.86c.29.11.7.07.79.44s-.24.68-.53.86a23.1,23.1,0,0,0-4.1,3.67,12.54,12.54,0,0,0-2.21,3.09,1.21,1.21,0,0,0,.46,1.83c1.43.85,2.82,1.77,4.23,2.66a94.11,94.11,0,0,1,16.31,13c.7.71,1.47,1.34,2.22,2,1.32,1.18,2.66.79,3.21-.88.13-.4-.06-1.12.64-1.11s.63.67.81,1.07c2,4.45,3.76,9,5.9,13.42a92.81,92.81,0,0,0,9.85,15.73,10.86,10.86,0,0,0,1.25,1.29c1.07,1,1,1.65-.3,2.38a35.52,35.52,0,0,1-9.06,3.3c-3.16.77-6.36.41-9.55.47-3,0-3.29.52-2.09,3.3a34.41,34.41,0,0,0,4.24,7.44c.59.77.4,1.22-.44,1.54a10.9,10.9,0,0,1-3.47.85c-3.22.08-6.47.34-9.68-.32l-.35-.06c-2-.26-2.32.15-1.73,2s1.23,4.09,1.82,6.15c.1.32.34.73,0,1s-.76.13-1.13,0c-1-.47-2.09-1-3.14-1.44-.28-.13-.53-.23-.47-.58s.32-.4.59-.5c1.36-.49,1.53-1.16.53-2.24a12,12,0,0,0-2.19-2c-.67-.42-.86-.92-.08-1.47a39.65,39.65,0,0,0,6.11-5.16,1.38,1.38,0,0,1,1.29-.49c1.33.26,1.91-.52,2-1.6.53-4,1-8.07,1.32-12.13a103.75,103.75,0,0,0-.52-16.63c-.35-3.73-1.13-7.4-1.84-11.07-.29-1.53-1.13-2.37-1.89-2-1.26.57-.64,1.69-.45,2.51A103.47,103.47,0,0,1,94,636.86c.2,3.24.26,6.47.16,9.7-.09,2.71-.4,5.41-.63,8.11,0,.27.12.7-.35.77s-.6-.26-.75-.61a202,202,0,0,0-16-30.46c-1.2-1.92-2.49-3.78-3.75-5.66a3.2,3.2,0,0,0-.7-.81c-.44-.33-.78-1.12-1.46-.71a1.48,1.48,0,0,0-.58,1.8c.75,2.72,1.49,5.44,2,8.2a83.33,83.33,0,0,1,1.86,13.34c0,.6.15,1.19.21,1.79,0,.23,0,.51-.27.6s-.44-.1-.59-.31c-3.21-4.66-6.92-8.93-10.32-13.44-1.82-2.41-3.7-4.78-5.58-7.15-.88-1.1-2-.95-2.56.4-2.15,4.71-4.25,9.43-6.38,14.15q-2.86,6.38-5.77,12.73C42.32,649.68,42.25,650.17,41.55,650.29Z" transform="translate(-9.57 -586.71)"/><path id="cara_1" class="piel" d="M60.05,671.05a19.9,19.9,0,0,1-5.64-2.21,30.94,30.94,0,0,1-12-10.65,1.88,1.88,0,0,1-.18-2.1c.64-1.28,1.2-2.6,1.84-3.89.16-.32.22-.9.72-.82s.38.54.43.89a.77.77,0,0,0,.33.6,1.05,1.05,0,0,0,1,0c.37-.2.24-.54.12-.85,0,0,0-.08,0-.11-1.5-2.35-.72-4.53.46-6.71.67-1.22,1.18-2.53,1.76-3.8a1.23,1.23,0,0,1,1.31-.81A9.32,9.32,0,0,1,56,643.05a22.58,22.58,0,0,1,4.2,5c.21.34.47.86,1,.53a.81.81,0,0,0,.22-1.17c-2.23-3.73-5-6.82-9.44-8-.68-.17-1.65.26-2-.37s.56-1.24.71-1.94c.3-1.3,1.14-1.66,2.4-1.44s2.29.34,3.44.46c.46,0,1,.11,1.08-.6s-.4-.73-.93-.79c-1.31-.13-2.61-.36-3.92-.46-.66-.05-.6-.34-.42-.76q1.72-3.93,3.47-7.86c.34-.76.7-.57,1.12,0,1.63,2.07,3.28,4.12,4.9,6.19q5.61,7.14,11.23,14.29A3.93,3.93,0,0,1,74,648.1c.11.77.51.71,1,.38a4.33,4.33,0,0,0,1.27-1.57,14.47,14.47,0,0,1,6-5.68c.57-.31.84-.19,1.14.34,1.82,3.29,3.46,6.69,4.95,10.14.86,2,1.84,3.95,2.76,5.91a1.75,1.75,0,0,1-.33,2.33,48.28,48.28,0,0,1-16.47,10.73,3.38,3.38,0,0,1-1.5.36.58.58,0,0,1-.16-.5c.59-.94,1.33-1.82,1.26-3,0-.3.05-.74-.4-.74s-.34.4-.38.67c-.36,2.73-2.19,3-4.41,2.48a1.44,1.44,0,0,1-.56-.2,2.66,2.66,0,0,0-3.22,0,3.91,3.91,0,0,1-2.09.4,2.34,2.34,0,0,1-2.59-1.83c-.19-.5-.15-1.13-.84-1.55-.32,1.65.5,2.85,1.23,4.08C60.53,671.17,60.32,671.18,60.05,671.05Z" transform="translate(-9.57 -586.71)"/><path id="cuello" class="cuello" d="M67.61,676.37c-4.22-.07-6,1.07-7.56,4.69-.55,1.24-1.09,1.35-2,.3a24.27,24.27,0,0,1-2.19-3,1.52,1.52,0,0,0-2-.82,3.48,3.48,0,0,1-.69.17c-1.88.23-2.08,0-1.56-1.79a2,2,0,0,0-1.09-2.68c-.82-.38-.78-.7-.13-1.28a3,3,0,0,1,3.75-.44,35.38,35.38,0,0,0,11.55,3.21c3.74.38,7.15-.84,10.52-2.2a44.25,44.25,0,0,0,5.59-2.7A2.53,2.53,0,0,1,85,671c.19.52.1.88-.6,1-1.69.26-1.86.59-1.5,2.21.7,3.09,1,3.45-2.42,2.39-2.7-.82-3-.51-2.37,2.22.51,2.24.22,2.55-2,2a4.9,4.9,0,0,1-2.92-1.75A6,6,0,0,0,67.61,676.37Z" transform="translate(-9.57 -586.71)"/><path id="oreja_izq" class="cls-1" d="M40.62,608.62a50.34,50.34,0,0,1,1.46-10.37c.21-.86.62-1.06,1.47-.71a39.94,39.94,0,0,1,7.21,3.71c.85.56.54,1-.07,1.46-1.29.94-2.62,1.84-3.88,2.82-1.59,1.22-3.11,2.51-4.68,3.75-.41.32-.8,1.05-1.37.72S40.71,609,40.62,608.62Z" transform="translate(-9.57 -586.71)"/><path id="oreja_dch" class="cls-1" d="M95.83,608.47c-.17.47.38,1.28-.28,1.54s-1-.55-1.42-.91q-4-3.29-8.17-6.25c-1.08-.77-1.06-1.06,0-1.82a36.63,36.63,0,0,1,7-3.53c.87-.37,1.19.07,1.35.77A51.64,51.64,0,0,1,95.83,608.47Z" transform="translate(-9.57 -586.71)"/><path id="boton" class="botonGrande" d="M67.57,680.85c-1.86,0-2.61.44-3.16,1.82a3.76,3.76,0,0,0,.86,4.17,3,3,0,0,1,.62.71c.3.55.47,1.26,0,1.67s-.93-.15-1.36-.43a6.05,6.05,0,0,1-3-5.35,5.31,5.31,0,0,1,5.2-5.25c3-.19,4.81,1.41,6,3.85a4.24,4.24,0,0,1-.69,4.7,18.89,18.89,0,0,1-2.42,2.31c-.47.4-1.15.84-1.64.08s.12-1.19.66-1.57a6,6,0,0,0,1.53-1.12,4.17,4.17,0,0,0-.37-5.09C69.1,680.69,68.28,680.91,67.57,680.85Z" transform="translate(-9.57 -586.71)"/><path id="cara_2" class="piel" d="M78.44,635.77c1.35-.44,2.17.27,2.75,1.48.27.57.6,1.11.92,1.65s.21.93-.42,1.18A14.89,14.89,0,0,0,77.38,643c-.27.24-.55.57-.92.42s-.27-.61-.29-.95c-.1-1.71-.1-3.42-.29-5.12-.14-1.27.41-1.64,1.53-1.59C77.73,635.79,78,635.77,78.44,635.77Z" transform="translate(-9.57 -586.71)"/><path id="cara_3" class="piel" d="M74.52,626c1.22,2,2.44,4,3.64,6.07.38.64,1.1,1.41,1,2-.2.85-1.28.26-2,.44-1.48.4-1.55.3-1.84-1.25-.36-2-.73-4-1.07-6a7.48,7.48,0,0,1,0-1.16Z" transform="translate(-9.57 -586.71)"/><path id="cara_4" class="piel" d="M71.08,671.72c-2.28,1.1-4.64.81-7,.41-.55-.09-1.08-.25-1.61-.38.07-.73.78-.45,1.14-.73a2,2,0,0,0,.22-.09,4.16,4.16,0,0,1,5-.19c.57.37,1.34.12,2,.36C71,671.24,71.19,671.42,71.08,671.72Z" transform="translate(-9.57 -586.71)"/><path id="boton_interior" class="botonChico" d="M69,684.22c-.09,1-.49,1.51-1.44,1.44a1.36,1.36,0,0,1-1.44-1.51,1.27,1.27,0,0,1,1.43-1.37C68.5,682.81,68.84,683.46,69,684.22Z" transform="translate(-9.57 -586.71)"/><path d="M56.46,660.41a11.91,11.91,0,0,1-5.42-.86c-.52-.18-1.08-.38-1-1s.69-.39,1.14-.35c.84.07.64-.54.55-1a14.19,14.19,0,0,1,.14-6.64,5.66,5.66,0,0,1,3.24-3.46,2.13,2.13,0,0,1,2.8,1.18,10.81,10.81,0,0,1,.29,8.94c-.11.3-.25.59-.38.88-.3.64-.17,1,.61.94.4,0,.87-.06.87.53a.78.78,0,0,1-.85.82Z" transform="translate(-9.57 -586.71)"/><path d="M78.83,660.42H76.69c-.47,0-.75-.23-.73-.74a.6.6,0,0,1,.7-.64c1.34.14.87-.68.61-1.23a11.93,11.93,0,0,1-.63-8.17c.64-2.65,2.53-3.34,4.72-1.7a5.58,5.58,0,0,1,2.23,3.68,13.67,13.67,0,0,1-.14,5.59c-.15.63-.1,1,.7.95.35,0,.9-.1.93.47s-.36.7-.74.85A11.31,11.31,0,0,1,78.83,660.42Z" transform="translate(-9.57 -586.71)"/><path class="cls-5" d="M72.77,670.54l-.12.06a7.79,7.79,0,0,1-.82.38,6.22,6.22,0,0,1-1,.31,5.72,5.72,0,0,1-3.42-.83,1.59,1.59,0,0,0-1.9,0,4.76,4.76,0,0,1-1.84.81,5.52,5.52,0,0,1-3.18-.45c-1.35-.94-1.37-2.43-1.6-3.83-.06-.35.05-.67.44-.73a.63.63,0,0,1,.75.45c.17.53.29,1.08.45,1.61a2,2,0,0,0,2.32,1.61,6.82,6.82,0,0,0,2.72-.85,1.74,1.74,0,0,1,2.09.09,3.78,3.78,0,0,0,1.42.58c2.36.55,3.35-.14,3.71-2.55.08-.52.19-1.18.83-1.1s.57.7.59,1.19A3.63,3.63,0,0,1,72.77,670.54Z" transform="translate(-9.57 -586.71)"/><path class="cls-6" d="M73.13,670.94a.13.13,0,0,0,0-.25.13.13,0,0,0,0,.25Z" transform="translate(-9.57 -586.71)"/><path class="cls-6" d="M71,671.5v0a.18.18,0,0,0-.07-.05.12.12,0,0,0-.1,0,.13.13,0,0,0-.06.07.16.16,0,0,0,0,.1h0a.11.11,0,0,0,.07.06.12.12,0,0,0,.1,0s0,0,0-.08a.09.09,0,0,0,0-.09Z" transform="translate(-9.57 -586.71)"/><path class="cls-5" d="M72.87,670.87" transform="translate(-9.57 -586.71)"/><path id="cara_5" class="piel" d="M70.05,671.84c0-.11.11-.3.79-.55.43-.16.45-.1.81-.23.52-.19.54-.32,1-.46s.86-.13.92,0a.88.88,0,0,1,0,.17.81.81,0,0,1,0,.17c-.07.22-1.42.55-1.94.7-.85.24-1.41.54-1.54.36A.19.19,0,0,1,70.05,671.84Z" transform="translate(-9.57 -586.71)"/><path d="M73.79,671.17h0a.14.14,0,0,0,0-.17.15.15,0,0,0-.19,0l-.2.07-.42.15a2.82,2.82,0,0,0-.74.36.13.13,0,0,0,.18.18,1.83,1.83,0,0,1,.58-.28l.35-.13.18-.06.07,0,0,0s0,0,0,0l-.06,0h0V671h0a.12.12,0,0,0,0,.18.12.12,0,0,0,.17,0Z" transform="translate(-9.57 -586.71)"/><path d="M70.78,671.2a.13.13,0,0,0,0-.25.13.13,0,0,0,0,.25Z" transform="translate(-9.57 -586.71)"/><path d="M70.71,671.29a4.4,4.4,0,0,0,2.05-.87c.13-.08,0-.3-.13-.21a4.14,4.14,0,0,1-1.92.83c-.16,0-.16.26,0,.25Z" transform="translate(-9.57 -586.71)"/><path d="M72.57,670.33a1.47,1.47,0,0,1-.47.27l-.29.08a1.17,1.17,0,0,0-.3.14.12.12,0,0,0,.13.21,1.31,1.31,0,0,1,.27-.12c.1,0,.21,0,.31-.09a1.89,1.89,0,0,0,.53-.31.13.13,0,0,0-.18-.18Z" transform="translate(-9.57 -586.71)"/><path d="M72.59,670.35a3.16,3.16,0,0,1-1,.4.13.13,0,0,0-.09.16.12.12,0,0,0,.15.08,3.5,3.5,0,0,0,1-.42c.13-.09,0-.31-.13-.22Z" transform="translate(-9.57 -586.71)"/><path id="cara_6" class="piel" d="M63,671.84c0,.09-.43,0-.81-.14s-.77-.18-1.15-.28c-2.17-.59-2.52-.68-2.65-1-.07-.19-.07-.45,0-.52s.81.52,1.9.9a.52.52,0,0,1,.16.06,3.93,3.93,0,0,0,1.29.36c.58.12,1.13.12,1.13.15s-.1,0-.13,0S63.06,671.74,63,671.84Z" transform="translate(-9.57 -586.71)"/><path class="cls-7" d="M64.64,671.62" transform="translate(-9.57 -586.71)"/></svg>