<svg id="face_icon" xmlns="http://www.w3.org/2000/svg" viewBox="0 0 114.42 92.51">
    <defs>
        <style>
            .cls-1{fill:#fefefe;}.cls-2{fill:none;stroke:#000;stroke-miterlimit:10;stroke-width:1.2px;}</style>
    </defs>
    <title>face_icon</title>
    <path
        d="M117.54,167.5a19.39,19.39,0,0,0-7.06-4.37c-5-1.84-10.14-3.27-15.56-3.25-.27,0-.65.11-.74-.22s.34-.5.6-.57c2.08-.54,4.15-1.09,6.25-1.54,1.64-.36,3.3-.62,4.63-1.76a8.36,8.36,0,0,0,3-7.1c-.29-6.49-4.57-9.21-10-8.79A35.72,35.72,0,0,0,85,144.19c-8.59,4.44-15.37,11-21.19,18.57-.81,1.07-1.08,1.14-1.75.2a71.76,71.76,0,0,0-8.27-9.32,50.43,50.43,0,0,0-16.87-11.16c-3.88-1.51-7.82-3-12.14-2.48a7.92,7.92,0,0,0-5.54,2.66A9.82,9.82,0,0,0,17,149.88a8,8,0,0,0,5.69,7.2c2.7.68,5.43,1.23,8.09,2.06.27.09.74.05.66.51s-.46.23-.71.23a32.6,32.6,0,0,0-8.17,1c-4.07,1-8.19,2-11.68,4.37C6,168.57,5,171,6,176.42c.78,4.11,5.81,9.1,11.73,6.64,1.51-.62,3-1.3,4.51-1.9.47-.19,1-.56,1.54-.3,0,.14,0,.24-.06.29q-.31.36-.66.69a39,39,0,0,0-7.42,8.75c-3,5.12-3,10.16,2.56,14.15a1.07,1.07,0,0,1,.41,1.35,50.48,50.48,0,0,0-2,9.19c-.7,5.2,1,9.15,6.52,10.76a8.16,8.16,0,0,0,5.64,0c1.08-.48,1.69-.27,2.12.68,1.77,4,9.55,5.73,13.05,2.9a1.48,1.48,0,0,1,.73-.41,2,2,0,0,1,.74,0,3.5,3.5,0,0,1,.51.13c2.23.75,4.53,1.23,6.78,1.91a31.55,31.55,0,0,0,10,1.07,31.39,31.39,0,0,0,6.55-.8A45.67,45.67,0,0,0,75.1,230a5.7,5.7,0,0,1,3.34-.69l.4.08a1.32,1.32,0,0,1,.33.15,8.58,8.58,0,0,0,2.56,1.25c3.73.84,9-.7,10.81-4.36.26-.52.56-.93,1.19-.62a8,8,0,0,0,4.58.56c4.63-.5,8.43-3.43,8.46-8.55A40.36,40.36,0,0,0,105,207.23c-.26-1,0-1.38.88-1.7a9.43,9.43,0,0,0,5.26-12.63,28.91,28.91,0,0,0-5.47-7.94c-1.26-1.36-2.71-2.56-4.24-4a1.61,1.61,0,0,1,1.43,0c1.28.55,2.55,1.11,3.85,1.63,1.75.7,3.56,1.39,5.46,1a9.26,9.26,0,0,0,7.24-6.46C120.57,173.7,120.37,170.3,117.54,167.5Z"
        transform="translate(-5.66 -139.86)" />
    <path id="face" class="piel"
        d="M42,196.23H81l0,.28-5.28,1.1-9.35,1.91c-.68.14-1.32.39-1.15,1.22s.92.71,1.55.58L83.19,198A11.07,11.07,0,0,0,88,196.31a1.67,1.67,0,0,1,2.28.36,25.77,25.77,0,0,1,3.12,3.79c.85,1.35.5,2.9.38,4.33a23.46,23.46,0,0,1-5.63,13.69c-4.71,5.47-10.45,9.62-17.59,11.14-13.77,2.94-25.87-.3-35.45-11.91A23.51,23.51,0,0,1,30,204.77a2.43,2.43,0,0,1,.51-1.67C31.88,201,33.41,199,35,197c.26-.33.53-.52.91-.3,2.16,1.25,4.63,1.32,7,1.84,4.5,1,9,1.88,13.54,2.8.68.14,1.46.33,1.62-.62s-.5-1.08-1.25-1.23c-4-.81-8.09-1.66-12.13-2.52A4.89,4.89,0,0,1,42,196.23Z"
        transform="translate(-5.66 -139.86)" />
    <path id="cinta" class="cinta"
        d="M62.82,193.82H39.08c-.3,0-.7.17-.85-.22s.22-.57.42-.79a77,77,0,0,1,16.23-13.16c2.17-1.27,4.44-2.35,6.65-3.54a2.67,2.67,0,0,1,2.61,0,75.07,75.07,0,0,1,22.45,16.28l.51.51c.19.2.42.43.31.72s-.47.19-.73.19H62.82Z"
        transform="translate(-5.66 -139.86)" />
    <path id="hair" class="cabello"
        d="M101.72,203.86c-2.17.14-3.85-1.1-5.14-3a80.36,80.36,0,0,0-6-7.61,77.69,77.69,0,0,0-25-19.23c-.54-.26-1.08-.52-1.6-.82-1.5-.87-1.94-1.83-1.57-3.36a2.92,2.92,0,0,1,3-2.25,20.93,20.93,0,0,1,5.37,1c8.86,2.22,17.3,5.45,24.85,10.73A49.51,49.51,0,0,1,107,190.2a11.76,11.76,0,0,1,2.43,6.14C109.71,200.33,106.1,203.89,101.72,203.86Zm-76.26-.15c2-.43,3-2,4.11-3.44A84.46,84.46,0,0,1,52,178.57a53.52,53.52,0,0,1,7.61-4.27c.5-.22,1.24-.53.8-1.19-1-1.51-.74-3-.32-4.59.25-.89,0-1.16-.95-.92a127.69,127.69,0,0,0-15,4.36c-8.14,3.15-15.55,7.45-21.63,13.78-2.39,2.5-4.77,5-5.81,8.52a7.23,7.23,0,0,0,7.05,9.59A9.38,9.38,0,0,0,25.46,203.71ZM12.62,180.86a5.44,5.44,0,0,0,5.49-.35,21.34,21.34,0,0,1,3.83-1.9c4.68-2,9.65-3.11,14.14-5.66A64.47,64.47,0,0,1,55.6,166.1c.32-.07.84,0,.87-.47s-.46-.51-.79-.58c-5.08-1.15-10.16-2.46-15.38-2.65s-10.81-.54-16.1.71c-4.6,1.08-9.41,1.64-13.17,5.07-1.79,1.64-3,3.34-2.9,5.67C8,177.4,9.79,179.55,12.62,180.86Zm58-15.9c-.48.11-1.25.07-1.22.68s.78.47,1.27.53a5.51,5.51,0,0,1,.71.07,81.15,81.15,0,0,1,21,8.1,17.32,17.32,0,0,0,3.38,1.48c4.17,1.39,8.48,2.46,12.24,4.93a3.81,3.81,0,0,0,1.45.51,7.19,7.19,0,0,0,7.9-9.32,9.36,9.36,0,0,0-5.76-5.9,44.88,44.88,0,0,0-20.46-3.66C84.09,162,77.35,163.41,70.62,165ZM98,142.35a44.68,44.68,0,0,0-17.56,7.49,74.18,74.18,0,0,0-13.23,12.3c-.22.26-.61.53-.38.91s.7.14,1.07,0a74.5,74.5,0,0,1,13.86-2.94c2.17-.25,4.37-.28,6.45-1.15a74.08,74.08,0,0,1,12.87-3.92,6.49,6.49,0,0,0,5.21-6.66c-.24-3.45-3.36-6.11-7.44-6.17C98.72,142.26,98.36,142.29,98,142.35ZM24.66,155.1a68.5,68.5,0,0,1,11.65,3.41,18,18,0,0,0,5.29,1.4,68.07,68.07,0,0,1,16.22,3.2c.33.11.7.36,1-.05s-.07-.67-.31-.94c-4.46-5-9.19-9.79-14.93-13.4a42.15,42.15,0,0,0-16.22-6.4c-5-.75-7.48,2.77-7.9,6.6A6.58,6.58,0,0,0,24.66,155.1Zm-2.22,51.38c-1.16-.21-1.72.2-1.91,1.42s-.68,2.61-1,3.93a20.91,20.91,0,0,0-.61,6.4c.31,3.33,3.26,6,7.48,5.86A5.42,5.42,0,0,0,31.07,216a29.23,29.23,0,0,1-3.2-9.44c-.1-.67-.27-1-1-.64a6.39,6.39,0,0,1-3.36.56A7.44,7.44,0,0,1,22.44,206.48Zm80.26,1.19c-.16-.53-.44-1.1-1-1.11A12.18,12.18,0,0,1,96.88,205c-.61-.3-.86-.09-.9.57a24.29,24.29,0,0,1-3.6,10.9,4.87,4.87,0,0,0,3.33,7.41c4.5.84,8.72-1.44,8.66-7.72A41,41,0,0,0,102.7,207.67ZM41.44,228.38c.34-.12.75-.14.82-.57s-.32-.6-.59-.82c-2.39-1.91-5-3.51-6.94-6-.32-.42-.79-.66-.94.22a4.19,4.19,0,0,1-.94,1.91,1.5,1.5,0,0,0-.1,1.77c1.35,2.64,3.59,3.67,6.42,3.7A9.07,9.07,0,0,0,41.44,228.38Zm47.11-1a5.64,5.64,0,0,0,2.26-3c.32-.82-.57-1.32-.88-2a3.73,3.73,0,0,1-.2-.56c-.19-.79-.57-.94-1.12-.3-1.83,2.15-4.21,3.64-6.38,5.38-.39.31-1,.59-.84,1.18s.83.48,1.33.5.8,0,1.13,0A6.93,6.93,0,0,0,88.55,227.34Z"
        transform="translate(-5.66 -139.86)" />
    <path
        d="M86,206c-2,5.66-10.17,9.6-16.16,3.38a9.44,9.44,0,0,1-2.07-3.19c-.43-1.13-.19-1.42,1-1.42H76.9v0c2.72,0,5.44,0,8.16,0C86.13,204.73,86.29,205.1,86,206Z"
        transform="translate(-5.66 -139.86)" />
    <path
        d="M55.65,206.78c-1.84,3.65-4.82,5.59-10.09,5.87-2.43.26-7.05-3.43-8-6.53-.34-1.13-.26-1.31,1-1.32l15,0h.84C56.22,204.71,56.51,205.07,55.65,206.78Z"
        transform="translate(-5.66 -139.86)" />
    <path
        d="M62.47,225.66a38.09,38.09,0,0,1-15.86-2.57c-.67-.26-1.37-.42-2-.69a1.06,1.06,0,0,1-.76-1.31,1.2,1.2,0,0,1,1.24-.92,4.91,4.91,0,0,1,2.21.44c6,2.49,12.39,2.78,18.79,2.4a33.58,33.58,0,0,0,8.71-1.94,29.12,29.12,0,0,1,2.85-.86c.72-.17,1.5-.17,1.72.78a1.3,1.3,0,0,1-1,1.63,61.57,61.57,0,0,1-11,2.87C65.39,225.75,63.52,225.58,62.47,225.66Z"
        transform="translate(-5.66 -139.86)" />
    <path id="eyes" class="cls-1"
        d="M86,206c-2,5.66-10.17,9.6-16.16,3.38a9.44,9.44,0,0,1-2.07-3.19c-.43-1.13-.19-1.42,1-1.42H76.9v0c2.72,0,5.44,0,8.16,0C86.13,204.73,86.29,205.1,86,206Zm-31.58-1.25h-.84l-15,0c-1.23,0-1.31.19-1,1.32.92,3.1,5.54,6.79,8,6.53,5.27-.28,8.25-2.22,10.09-5.87C56.51,205.07,56.22,204.71,54.38,204.78Z"
        transform="translate(-5.66 -139.86)" />
    <g id="pupil_left" class="ojos">
        <path d="M46.69,213.94c7.07,0,7.09-11,0-11s-7.09,11,0,11Z"
            transform="translate(-5.66 -139.86)" />
    </g>
    <g id="pupil_right" class="ojos">
        <path d="M76.42,214.1c7.08,0,7.09-11,0-11s-7.09,11,0,11Z"
            transform="translate(-5.66 -139.86)" />
    </g>
    <path id="contorno_eye_left"
        d="M57.11,202.61a17.76,17.76,0,0,0-2.62-.19H46.34c-3.16,0-6.31,0-9.47,0-1.7,0-2.35.7-2.07,2.25.68,3.74,2.38,6.89,5.78,8.8,4.72,2.64,12.13,2.16,16.21-3.4a10.42,10.42,0,0,0,2-5.55C58.85,203.11,58.46,202.81,57.11,202.61Zm-1.46,4.17c-1.84,3.65-4.82,5.59-10.09,5.87-2.43.26-7.05-3.43-8-6.53-.34-1.13-.26-1.31,1-1.32l15,0h.84C56.22,204.71,56.51,205.07,55.65,206.78Z"
        transform="translate(-5.66 -139.86)" />
    <path id="contorno_eye_right"
        d="M87.19,202.51a7.15,7.15,0,0,0-1.31-.09H76.2c-2.89.12-6.6-.16-10.31.2-.81.08-1.15.38-1.12,1.19a11.82,11.82,0,0,0,1.74,5.75c3.92,6.63,14.12,7.14,19,1.9a12.88,12.88,0,0,0,3.23-6.81C89,203.25,88.58,202.77,87.19,202.51ZM86,206c-2,5.66-10.17,9.6-16.16,3.38a9.44,9.44,0,0,1-2.07-3.19c-.43-1.13-.19-1.42,1-1.42H76.9v0c2.72,0,5.44,0,8.16,0C86.13,204.73,86.29,205.1,86,206Z"
        transform="translate(-5.66 -139.86)" />
    <path class="cls-2"
        d="M38.34,223.08a25.41,25.41,0,0,0,5.79,4.58,27.46,27.46,0,0,0,3.93,1.85,33.94,33.94,0,0,0,5.87,1.69,38.06,38.06,0,0,0,7.87.56,39.23,39.23,0,0,0,6.75-.48A35.83,35.83,0,0,0,74,229.91a31.71,31.71,0,0,0,3-1.2c1-.47,1.77-.9,2.17-1.13.64-.36,1.18-.69,1.61-1"
        transform="translate(-5.66 -139.86)" />
</svg>